<?xml version="1.0" standalone="no"?>
<!DOCTYPE svg PUBLIC "-//W3C//DTD SVG 20010904//EN"
 "http://www.w3.org/TR/2001/REC-SVG-20010904/DTD/svg10.dtd">
<svg version="1.0" xmlns="http://www.w3.org/2000/svg"
 width="666.000000pt" height="375.000000pt" viewBox="0 0 666.000000 375.000000"
 preserveAspectRatio="xMidYMid meet">

<g transform="translate(0.000000,375.000000) scale(0.100000,-0.100000)"
fill="#000000" stroke="none">
<path d="M4205 2874 c-6 -2 -9 -64 -8 -161 1 -87 4 -157 7 -155 3 1 24 2 45 2
l39 0 4 123 c2 67 1 132 -3 144 -7 18 -58 56 -71 52 -2 0 -7 -2 -13 -5z m12
-66 c-3 -7 -5 -2 -5 12 0 14 2 19 5 13 2 -7 2 -19 0 -25z"/>
<path d="M2878 2723 c7 -3 16 -2 19 1 4 3 -2 6 -13 5 -11 0 -14 -3 -6 -6z"/>
<path d="M3766 2318 c-9 -128 -13 -718 -5 -718 4 0 9 42 11 93 5 134 8 707 4
707 -2 0 -7 -37 -10 -82z"/>
<path d="M2560 2267 c0 -91 -1 -99 -15 -81 -8 10 -14 24 -15 29 0 6 5 3 10 -5
6 -9 10 -10 10 -3 0 6 -8 18 -18 25 -19 13 -57 98 -45 98 4 0 -3 7 -15 16 -14
9 -38 14 -65 12 l-42 -3 0 -95 0 -95 84 -1 c52 -1 86 -6 91 -13 4 -8 25 -11
51 -9 l44 3 0 105 0 105 -37 6 -38 6 0 -100z"/>
<path d="M4281 2323 c-39 -10 -61 -11 -82 -4 -33 11 -33 10 -18 -39 7 -24 8
-160 3 -418 -6 -343 -9 -385 -24 -405 -20 -24 45 -29 -560 43 -718 85 -899
109 -917 118 -38 20 -73 23 -73 7 0 -18 11 -21 185 -40 156 -18 438 -54 471
-60 15 -4 24 -15 28 -38 l6 -34 120 -13 c116 -12 120 -13 120 -36 0 -13 -3
-24 -7 -24 -5 0 -60 9 -123 20 l-115 19 -27 -29 c-44 -48 -71 -60 -159 -70
-111 -13 -129 -18 -129 -33 0 -9 42 -20 123 -35 67 -12 172 -32 234 -44 133
-26 150 -22 184 49 18 37 24 70 27 141 l4 93 57 -6 c31 -4 117 -15 191 -25
293 -40 346 -44 395 -30 81 23 78 9 86 465 4 222 10 408 13 414 4 6 13 11 21
11 8 0 17 5 20 10 3 6 5 9 3 9 -2 -1 -27 -8 -57 -16z"/>
<path d="M3287 2305 c-20 -14 -37 -28 -37 -31 0 -2 18 8 40 22 35 23 47 34 37
34 -1 0 -19 -11 -40 -25z"/>
<path d="M3617 2113 c-10 -262 -9 -503 1 -503 5 0 12 48 15 107 10 153 9 583
-1 583 -5 0 -12 -84 -15 -187z"/>
<path d="M3148 2203 c-27 -32 -123 -231 -115 -240 2 -2 24 41 48 94 24 54 54
112 66 130 24 36 25 43 1 16z"/>
<path d="M3350 1910 c0 -173 4 -270 10 -270 6 0 10 97 10 270 0 173 -4 270
-10 270 -6 0 -10 -97 -10 -270z"/>
<path d="M3915 2120 c-6 -16 -8 -121 -5 -280 l5 -255 8 155 c11 199 6 414 -8
380z"/>
<path d="M3487 2103 c-11 -11 -8 -473 3 -473 6 0 10 87 10 240 0 132 -1 240
-3 240 -2 0 -7 -3 -10 -7z"/>
<path d="M3230 1845 c0 -123 4 -195 10 -195 6 0 10 72 10 195 0 123 -4 195
-10 195 -6 0 -10 -72 -10 -195z"/>
<path d="M2600 1953 c0 -43 3 -128 6 -188 l7 -111 29 2 c28 2 54 14 30 14 -9
0 -12 45 -12 161 0 167 -7 199 -40 199 -18 0 -20 -7 -20 -77z"/>
<path d="M4145 1840 c-10 -11 -13 -20 -8 -20 13 0 38 29 31 35 -3 3 -13 -4
-23 -15z"/>
<path d="M2920 1675 c-7 -9 -8 -15 -2 -15 5 0 12 7 16 15 3 8 4 15 2 15 -2 0
-9 -7 -16 -15z"/>
<path d="M2585 1540 c-3 -5 -1 -10 4 -10 6 0 11 5 11 10 0 6 -2 10 -4 10 -3 0
-8 -4 -11 -10z"/>
<path d="M2560 1256 c0 -2 11 -6 25 -8 13 -3 22 -1 19 3 -5 9 -44 13 -44 5z"/>
<path d="M2620 1246 c0 -2 7 -6 15 -10 8 -3 15 -1 15 4 0 6 -7 10 -15 10 -8 0
-15 -2 -15 -4z"/>
<path d="M2670 1236 c0 -2 7 -6 15 -10 8 -3 15 -1 15 4 0 6 -7 10 -15 10 -8 0
-15 -2 -15 -4z"/>
<path d="M2728 1223 c7 -3 16 -2 19 1 4 3 -2 6 -13 5 -11 0 -14 -3 -6 -6z"/>
<path d="M2775 1213 c11 -11 134 -37 141 -30 3 2 -23 10 -57 16 -33 7 -68 15
-78 18 -11 4 -13 3 -6 -4z"/>
<path d="M2305 1180 c3 -5 -2 -10 -11 -10 -10 0 -15 -2 -12 -5 3 -4 184 -51
403 -105 l397 -99 127 47 c102 38 127 51 129 68 2 15 -4 23 -20 28 -39 10 -58
7 -58 -10 0 -16 -172 -104 -203 -104 -16 0 -60 11 -377 90 -183 45 -326 86
-352 101 -23 12 -31 12 -23 -1z"/>
<path d="M2938 1173 c6 -2 18 -2 25 0 6 3 1 5 -13 5 -14 0 -19 -2 -12 -5z"/>
</g>
</svg>
